HIERARCHY
ROOT Hips
{
	OFFSET 0.000000 0.000000 0.000000
	CHANNELS 6 Xposition Yposition Zposition Xrotation Yrotation Zrotation
	JOINT LeftUpLeg_virtual
	{
		OFFSET 0.000000 0.000000 0.000000
		CHANNELS 3 Xrotation Yrotation Zrotation
		JOINT LeftUpLeg
		{
			OFFSET 13.026900 -6.336304 -1.092800
			CHANNELS 3 Xrotation Yrotation Zrotation
			JOINT LeftLeg
			{
				OFFSET 0.524474 -46.096886 9.782700
				CHANNELS 3 Xrotation Yrotation Zrotation
				JOINT LeftFoot
				{
					OFFSET -0.524474 -53.427422 -12.948200
					CHANNELS 3 Xrotation Yrotation Zrotation
					JOINT LeftToeBase
					{
						OFFSET 0.192200 -14.009700 16.364100
						CHANNELS 3 Xrotation Yrotation Zrotation
						JOINT LeftToe_End
						{
							OFFSET -1.784700 -0.561700 9.474800
							CHANNELS 3 Xrotation Yrotation Zrotation
							End Site
							{
								OFFSET 0 0 0
							}
						}
					}
				}
			}
		}
	}
	JOINT RightUpLeg_virtual
	{
		OFFSET 0.000000 0.000000 0.000000
		CHANNELS 3 Xrotation Yrotation Zrotation
		JOINT RightUpLeg
		{
			OFFSET -12.883000 -6.336304 -1.092800
			CHANNELS 3 Xrotation Yrotation Zrotation
			JOINT RightLeg
			{
				OFFSET -0.524587 -46.096825 9.782800
				CHANNELS 3 Xrotation Yrotation Zrotation
				JOINT RightFoot
				{
					OFFSET 0.524587 -53.427383 -12.948300
					CHANNELS 3 Xrotation Yrotation Zrotation
					JOINT RightToeBase
					{
						OFFSET -0.192200 -14.009700 16.364100
						CHANNELS 3 Xrotation Yrotation Zrotation
						JOINT RightToe_End
						{
							OFFSET 1.784700 -0.561700 9.474800
							CHANNELS 3 Xrotation Yrotation Zrotation
							End Site
							{
								OFFSET 0 0 0
							}
						}
					}
				}
			}
		}
	}
	JOINT Spine_virtual
	{
		OFFSET 0.000000 0.000000 0.000000
		CHANNELS 3 Xrotation Yrotation Zrotation
		JOINT Spine
		{
			OFFSET 0.072000 7.257294 -0.789700
			CHANNELS 3 Xrotation Yrotation Zrotation
			JOINT Spine1
			{
				OFFSET 0.000000 12.508769 -0.658067
				CHANNELS 3 Xrotation Yrotation Zrotation
				JOINT Spine1_split
				{
					OFFSET 0.000000 12.508769 -0.658067
					CHANNELS 3 Xrotation Yrotation Zrotation
					JOINT Spine2
					{
						OFFSET 0.000000 12.508769 -0.658067
						CHANNELS 3 Xrotation Yrotation Zrotation
						JOINT Neck_virtual
						{
							OFFSET 0.000000 0.000000 0.000000
							CHANNELS 3 Xrotation Yrotation Zrotation
							JOINT Neck
							{
								OFFSET 0.000000 14.033295 7.520400
								CHANNELS 3 Xrotation Yrotation Zrotation
								JOINT Head
								{
									OFFSET 0.000000 8.198502 5.703100
									CHANNELS 3 Xrotation Yrotation Zrotation
									JOINT HeadTop_End
									{
										OFFSET 0.000000 17.760803 13.332701
										CHANNELS 3 Xrotation Yrotation Zrotation
										End Site
										{
											OFFSET 0 0 0
										}
									}
								}
							}
						}
						JOINT LeftShoulder_virtual
						{
							OFFSET 0.000000 0.000000 0.000000
							CHANNELS 3 Xrotation Yrotation Zrotation
							JOINT LeftShoulder
							{
								OFFSET 6.292450 5.785301 -0.669000
								CHANNELS 3 Xrotation Yrotation Zrotation
								JOINT LeftShoulder_split
								{
									OFFSET 6.292450 5.785301 -0.669000
									CHANNELS 3 Xrotation Yrotation Zrotation
									JOINT LeftArm
									{
										OFFSET 13.907140 -6.093903 1.965100
										CHANNELS 3 Xrotation Yrotation Zrotation
										JOINT LeftForeArm
										{
											OFFSET 34.140198 0.000000 0.000000
											CHANNELS 3 Xrotation Yrotation Zrotation
											JOINT LeftHand
											{
												OFFSET 40.960209 0.000000 0.000000
												CHANNELS 3 Xrotation Yrotation Zrotation
												End Site
												{
													OFFSET 0 0 0
												}
											}
										}
									}
								}
							}
						}
						JOINT RightShoulder_virtual
						{
							OFFSET 0.000000 0.000000 0.000000
							CHANNELS 3 Xrotation Yrotation Zrotation
							JOINT RightShoulder
							{
								OFFSET -6.292450 5.785301 -0.669000
								CHANNELS 3 Xrotation Yrotation Zrotation
								JOINT RightShoulder_split
								{
									OFFSET -6.292450 5.785301 -0.669000
									CHANNELS 3 Xrotation Yrotation Zrotation
									JOINT RightArm
									{
										OFFSET -13.907140 -6.093903 1.965100
										CHANNELS 3 Xrotation Yrotation Zrotation
										JOINT RightForeArm
										{
											OFFSET -34.140198 0.000000 0.000000
											CHANNELS 3 Xrotation Yrotation Zrotation
											JOINT RightHand
											{
												OFFSET -40.960209 0.000000 0.000000
												CHANNELS 3 Xrotation Yrotation Zrotation
												End Site
												{
													OFFSET 0 0 0
												}
											}
										}
									}
								}
							}
						}
					}
				}
			}
		}
	}
}
MOTION
Frames: 6
Frame Time: 0.03333333
-0.805441 92.518341 -5.491011 0.000000 0.000000 0.000000 -1.191834 -49.189100 3.001507 -38.518070 11.313946 22.763581 56.476116 -11.177615 3.224180 -12.993632 -3.004635 -12.872961 -2.514582 -1.680405 -0.563646 0.000000 0.000000 0.000000 -2.063419 -46.876384 2.841028 -25.507732 -12.444999 -25.044495 58.820168 9.743000 -5.692224 -24.076191 -22.416169 31.339684 1.698840 7.350932 -10.371070 0.000000 0.000000 0.000000 -5.828678 -43.202879 -0.019386 3.868216 4.995409 -1.133343 3.727388 -0.381526 -1.246776 0.165130 -0.137042 0.092149 0.000000 0.000000 0.000000 6.124332 0.891945 0.042435 4.912236 14.346438 3.879074 -9.229946 1.858097 -23.640629 0.000000 0.000000 0.000000 6.173709 -0.740166 -1.588202 2.597178 6.109155 -3.237545 2.796545 -6.963126 0.680072 -61.913199 9.373405 -39.734257 170.781736 -64.113387 167.589524 0.000000 0.000000 0.000000 6.501969 -0.545976 -0.420358 -6.311988 12.106124 -6.224111 -3.741852 -5.990126 3.234682 -49.440789 23.679588 91.422861 -150.755922 72.183065 150.751509 0.000000 0.000000 0.000000 
-0.739742 92.509438 -5.534567 0.000000 0.000000 0.000000 -1.070908 -49.223609 3.262562 -38.324700 11.498686 22.406593 56.013289 -11.311578 3.143846 -12.973188 -2.853711 -12.571686 -2.589523 -1.785037 -0.415918 0.000000 0.000000 0.000000 -2.153714 -47.015399 3.007319 -25.885283 -12.778282 -25.333544 59.079716 9.779301 -5.489791 -24.098318 -22.608843 30.882311 1.983954 7.341133 -10.420876 0.000000 0.000000 0.000000 -5.572606 -43.651008 0.249149 3.920448 5.192430 -1.350509 3.746122 -0.339760 -0.993137 0.265523 -0.059095 0.184207 0.000000 0.000000 0.000000 6.139733 1.015466 0.086251 4.764360 14.327517 3.784441 -10.264200 1.942304 -23.410581 0.000000 0.000000 0.000000 6.374866 -0.673470 -1.260179 2.483200 5.388994 -3.562329 3.563852 -6.327597 2.128277 -61.659348 11.055421 -40.717063 166.037049 -64.982543 163.037954 0.000000 0.000000 0.000000 6.590335 -0.425119 -0.232294 -6.225976 12.483664 -6.716703 -3.290975 -4.945898 1.851768 -50.437856 23.888581 91.217238 -152.547248 71.548117 152.558395 0.000000 0.000000 0.000000 
-0.564904 92.572380 -5.436590 0.000000 0.000000 0.000000 -0.857157 -49.595660 3.736697 -37.786321 11.669065 21.887770 55.488009 -11.686239 3.239963 -13.128471 -2.718097 -12.419727 -2.703770 -1.917998 -0.366936 0.000000 0.000000 0.000000 -1.943373 -47.548413 3.410809 -26.206053 -12.628602 -25.418658 59.090282 10.015151 -5.474674 -23.782579 -22.579851 30.505199 1.508340 7.285162 -10.388613 0.000000 0.000000 0.000000 -4.999400 -44.389355 0.891907 3.825378 5.556439 -1.682263 3.731132 -0.204810 -0.673946 0.233604 -0.111137 0.167825 0.000000 0.000000 0.000000 6.183095 1.324450 0.275941 4.456769 14.484833 3.381033 -10.810520 2.373814 -23.114291 0.000000 0.000000 0.000000 6.738607 -0.430616 -0.757977 2.106424 4.639042 -3.187264 4.444347 -4.498871 3.598032 -62.511667 13.568248 -42.300967 162.524966 -64.671769 159.700451 0.000000 0.000000 0.000000 6.446949 -0.147247 0.033388 -5.895199 13.020899 -7.207603 -2.973293 -4.639978 1.148730 -51.580462 24.506946 90.998378 -154.237474 71.177251 154.217298 0.000000 0.000000 0.000000 
-0.386487 92.725433 -5.138716 0.000000 0.000000 0.000000 -0.494565 -50.237342 4.333796 -36.895391 11.956954 21.318132 54.923614 -12.047850 3.353184 -13.569577 -2.376035 -12.219445 -2.754422 -2.055498 -0.411727 0.000000 0.000000 0.000000 -1.347018 -48.404311 3.996205 -26.385665 -11.938022 -25.205703 58.662685 10.401946 -5.677608 -23.566910 -22.353010 29.736496 0.796895 7.132978 -10.278410 0.000000 0.000000 0.000000 -4.110434 -45.486072 1.856835 3.500038 5.984632 -1.988910 3.567293 0.022135 -0.441489 0.105568 -0.198355 0.109562 0.000000 0.000000 0.000000 6.193006 1.742404 0.500198 4.101655 14.780847 2.764733 -10.482904 3.675121 -22.809036 0.000000 0.000000 0.000000 6.999255 -0.038565 -0.262658 1.692278 4.290191 -2.038669 5.715811 -2.741008 3.937061 -63.745090 15.651746 -44.278641 161.681847 -63.818979 158.774414 0.000000 0.000000 0.000000 6.083154 0.200768 0.197262 -5.472551 13.619141 -7.593892 -2.548767 -4.802907 1.386346 -52.644397 25.483593 90.851959 -155.604222 71.177948 155.516413 0.000000 0.000000 0.000000 
-0.298801 93.047569 -4.720205 0.000000 0.000000 0.000000 0.092666 -51.363750 4.979116 -35.612453 12.404525 20.824846 54.424481 -12.221383 3.389413 -14.246140 -1.527576 -11.893525 -2.570351 -2.143916 -0.527594 0.000000 0.000000 0.000000 -0.315262 -49.602500 4.767937 -26.706226 -10.654592 -24.798173 57.768272 10.915221 -6.036139 -23.429057 -21.807293 28.487753 0.720302 6.846685 -10.191832 0.000000 0.000000 0.000000 -2.929752 -46.986647 3.002173 2.981416 6.348315 -2.131856 3.129820 0.287720 -0.440160 -0.054503 -0.213517 0.006758 0.000000 0.000000 0.000000 6.060293 2.170108 0.588214 3.904111 15.185619 2.006486 -9.296537 5.890072 -22.487949 0.000000 0.000000 0.000000 7.001939 0.412273 0.054136 1.337452 4.584456 -0.393149 5.565289 -3.051681 3.073806 -63.791727 17.360083 -45.235148 162.820317 -62.239245 159.735571 0.000000 0.000000 0.000000 5.556649 0.511110 0.182429 -5.047791 14.098866 -7.876840 -2.190064 -5.723597 1.931912 -53.774192 26.825255 90.860709 -156.536502 71.655665 156.360898 0.000000 0.000000 0.000000 
-0.325107 93.607132 -4.218370 0.000000 0.000000 0.000000 0.902902 -53.083001 5.619533 -33.667290 13.153027 20.421955 53.865266 -11.997734 3.244470 -15.303233 0.041583 -11.131480 -2.101689 -2.178712 -0.702137 0.000000 0.000000 0.000000 0.893059 -51.318237 5.541516 -27.639122 -9.074796 -24.386543 56.521960 11.550792 -6.391734 -22.699715 -20.771032 27.242426 1.413902 6.464292 -10.234886 0.000000 0.000000 0.000000 -1.661509 -48.886403 4.057088 2.484651 6.475904 -2.002684 2.345402 0.505243 -0.702899 -0.107068 -0.224237 -0.063355 0.000000 0.000000 0.000000 5.649287 2.494551 0.490494 3.998075 15.665898 1.214081 -7.470594 8.809445 -22.245460 0.000000 0.000000 0.000000 6.713717 0.783746 0.149780 1.119633 5.540620 1.534389 4.230283 -4.863355 2.205092 -62.677142 17.960437 -44.711378 164.357356 -60.480656 161.022065 0.000000 0.000000 0.000000 5.026034 0.716084 -0.015228 -4.716725 14.289615 -8.098519 -2.084280 -7.084664 2.290497 -55.165925 28.508655 91.164242 -157.035488 72.558179 156.816253 0.000000 0.000000 0.000000 
